<svg width="30" height="33" viewBox="0 0 584 616" fill="none" xmlns="http://www.w3.org/2000/svg">
<path d="M248.791 364.454C253.133 360.845 258.858 359.354 264.41 360.386L327.051 372.034L327.736 372.173C334.769 373.749 340.329 379.184 342.041 386.227L357.182 448.539C359.466 457.939 354.323 467.554 345.237 470.872L329.317 476.686C312.937 482.668 305.503 501.65 313.463 517.165L317.909 525.829L318.141 526.299C318.669 527.401 319.089 528.551 319.396 529.735L335.564 592.1C338.197 602.257 332.097 612.627 321.94 615.26C311.782 617.893 301.413 611.794 298.78 601.636L283.185 541.483C283.155 541.365 283.111 541.251 283.056 541.143V541.143C282.265 539.602 279.936 540.164 279.936 541.897V596.868C279.936 607.362 271.429 615.868 260.936 615.868C250.443 615.868 241.936 607.362 241.936 596.868V379.066C241.936 373.419 244.448 368.064 248.791 364.454ZM377.334 466.964C385.258 461.914 395.735 463.811 401.387 471.318L459.265 548.189C462.683 552.728 463.755 558.614 462.161 564.068C460.566 569.521 456.489 573.903 451.165 575.885L393.287 597.431C389.956 598.671 386.332 598.898 382.873 598.081L355.726 591.676C349.307 590.161 344.229 585.256 342.494 578.892L325.138 515.24C323.064 507.633 326.181 499.562 332.83 495.325L377.334 466.964ZM209.462 329.624C218.78 329.851 226.418 337.177 226.985 346.53L231.643 423.401C232.162 431.962 226.568 439.7 218.276 441.892V441.892C205.15 445.361 203.121 463.143 215.128 469.48L224.408 474.377C230.467 477.575 234.186 483.937 234 490.786L231.67 576.393C231.526 581.662 229.08 586.604 224.977 589.913C220.874 593.223 215.527 594.568 210.346 593.593L160.846 584.275C157.455 583.636 154.317 582.036 151.809 579.665L119.78 549.382C116.184 545.982 114.146 541.252 114.146 536.303V347.618C114.146 337.677 122.205 329.619 132.146 329.618H209.017L209.462 329.624ZM371.905 513.111C366.821 516.351 364.438 522.522 366.023 528.338L372.364 551.592C373.625 556.216 377.314 559.78 381.979 560.881V560.881C384.493 561.475 387.126 561.31 389.547 560.409L391.392 559.722C403.664 555.153 408.079 540.058 400.203 529.596L390.297 516.44C385.975 510.699 377.965 509.25 371.905 513.111V513.111ZM150.146 517.693C150.146 524.623 152.999 531.247 158.034 536.008L169.211 546.575C171.488 548.729 174.336 550.182 177.416 550.761V550.761C187.301 552.622 196.504 545.198 196.778 535.144L197.309 515.648C197.553 506.674 192.681 498.338 184.74 494.148V494.148C169.033 485.858 150.146 497.246 150.146 515.007V517.693ZM518.445 253.405C527.335 248.956 538.148 252.556 542.597 261.446C547.046 270.336 543.445 281.149 534.555 285.598L483.211 311.292C482.586 311.605 481.943 311.881 481.286 312.119L473.467 314.951C454.034 321.99 447.992 346.519 461.933 361.778L473.885 374.861C476.916 378.178 478.596 382.508 478.596 387.001V505.427C478.596 513.175 473.639 520.053 466.289 522.503C458.939 524.953 450.845 522.425 446.197 516.227L381.554 430.038C375.59 422.086 377.202 410.803 385.155 404.838C393.108 398.874 404.39 400.485 410.355 408.438L412.079 410.736C421.855 423.771 442.596 416.857 442.596 400.563V400.563C442.596 396.331 441.013 392.252 438.159 389.128L387.907 334.125C383.852 329.687 382.281 323.516 383.718 317.679C385.156 311.842 389.414 307.107 395.066 305.06L468.038 278.629L518.445 253.405ZM279.936 430.482C279.936 442.036 291.424 450.07 302.276 446.107V446.107C310.231 443.202 314.733 434.784 312.733 426.555L310.376 416.851C308.94 410.945 304.173 406.43 298.196 405.319V405.319C288.702 403.553 279.936 410.84 279.936 420.497V430.482ZM150.146 394.332C150.146 408.645 163.697 419.08 177.535 415.423V415.423C187.585 412.767 194.365 403.389 193.736 393.013L193.305 385.911C192.615 374.511 183.167 365.618 171.746 365.618V365.618C159.816 365.618 150.146 375.289 150.146 387.218V394.332ZM171.453 195.07C179.7 189.519 190.885 191.705 196.436 199.951L198.981 203.732C204.701 212.23 214.48 217.08 224.707 216.491L282.232 213.175L282.751 213.153C282.923 213.148 283.096 213.145 283.268 213.145H355.003C360.367 213.145 365.452 215.537 368.872 219.669L387.372 242.027C393.709 249.686 392.638 261.033 384.979 267.37C377.32 273.708 365.973 272.637 359.635 264.978L355.232 259.657C349.723 252.999 341.531 249.145 332.89 249.145H330.268C314.252 249.145 301.268 262.129 301.268 278.145V334.222C301.268 344.163 293.209 352.222 283.268 352.222C273.327 352.222 265.268 344.163 265.268 334.222V280.931C265.268 264.259 251.244 251.02 234.599 251.979L200.04 253.972C193.692 254.338 187.621 251.328 184.071 246.053L166.571 220.053C161.02 211.806 163.206 200.621 171.453 195.07ZM154.914 8.47982C161.065 4.78633 168.856 5.09423 174.711 9.31966L193.536 22.9076C201.596 28.7259 203.413 39.977 197.595 48.0374C191.777 56.0979 180.526 57.9152 172.465 52.097V52.097C167.169 48.274 160.065 48.1103 154.598 51.6854L105.638 83.7062C100.512 87.0588 96.5785 91.9485 94.4025 97.6742L50.1175 214.201C44.7786 228.249 51.0563 244.048 64.5809 250.601L77.8203 257.016C94.0805 264.894 112.981 253.05 112.981 234.982V234.982C112.981 230.675 111.845 226.445 109.688 222.718L86.4244 182.518C81.4455 173.914 84.3839 162.902 92.9879 157.923C101.592 152.944 112.603 155.883 117.583 164.487L146.56 214.56C148.146 217.3 148.981 220.41 148.981 223.576V302.777C148.981 308.975 145.792 314.737 140.54 318.029C135.287 321.32 128.711 321.678 123.132 318.975L10.1549 264.233C1.76076 260.165 -2.13629 250.359 1.17732 241.64L66.1773 70.6077L66.4439 69.9476C67.8366 66.6784 70.1682 63.8886 73.151 61.9378L154.324 8.84994L154.914 8.47982ZM463.617 42.6341C469.954 34.9749 481.3 33.9021 488.96 40.2386L553.019 93.2327L553.327 93.4935C556.473 96.2172 558.582 99.9511 559.287 104.061L583.746 246.739C585.148 254.92 580.774 263 573.157 266.298C565.54 269.597 556.655 267.259 551.648 260.639L477.65 162.802V162.802C464.249 145.084 436.008 154.561 436.008 176.776V227.651C436.008 237.592 427.949 245.651 418.008 245.651C408.067 245.651 400.008 237.592 400.008 227.651V54.1077C400.009 46.3736 404.949 39.5039 412.282 37.0433C419.614 34.5829 427.699 37.0809 432.365 43.2494L506.363 141.086V141.086C513.867 151.007 529.638 144.177 527.537 131.917L525.829 121.956C525.25 118.577 523.479 115.518 520.837 113.332L466.012 67.9769C458.353 61.6402 457.28 50.2939 463.617 42.6341ZM388.956 0.241539C398.765 -1.37231 408.025 5.27136 409.639 15.0804C411.253 24.8895 404.61 34.1491 394.8 35.763L307.776 50.0814C305.74 50.4163 303.661 50.3989 301.631 50.0296L249.918 40.6205C245.104 39.7447 240.516 43.0128 239.771 47.8485V47.8485C239.219 51.4354 240.953 54.9882 244.12 56.7592L289.93 82.3711C299.631 87.7949 311.579 87.1971 320.69 80.832L364.934 49.9232C373.083 44.2301 384.305 46.2215 389.999 54.3704C395.692 62.5198 393.701 73.7416 385.551 79.4349L317.163 127.212C311.507 131.163 304.091 131.534 298.07 128.167L272.453 113.845C258.304 105.934 241.031 116.913 242.188 133.082V133.082C242.801 141.65 248.721 148.913 256.99 151.24L294.053 161.672C301.066 163.646 308.566 162.908 315.06 159.604L365.081 134.155C373.941 129.647 384.778 133.176 389.286 142.035C393.794 150.896 390.265 161.733 381.405 166.241L315.016 200.018C310.986 202.069 306.33 202.526 301.977 201.301L221.282 178.589C213.977 176.533 208.746 170.116 208.205 162.547L201.205 64.7113C201.109 63.3675 201.164 62.0164 201.369 60.6849L208.369 15.2611L208.444 14.8119C209.276 10.1919 211.882 6.07174 215.715 3.34115C219.672 0.522655 224.601 -0.576083 229.38 0.293297L300.066 13.1539C303.337 13.7489 306.685 13.7772 309.965 13.2375L388.956 0.241539Z" fill="#137763"></path>
</svg>